<svg xmlns="http://www.w3.org/2000/svg" viewBox="0 0 449.18 356.26"><defs><style>.cls-1{fill:#e6e6e5;}.cls-2{fill:#6250a2;}.cls-3{fill:#afc0e0;}.cls-19,.cls-4{fill:#fff;}.cls-4{opacity:0.2;}.cls-12,.cls-15,.cls-16,.cls-18,.cls-22,.cls-4,.cls-5{isolation:isolate;}.cls-5{fill:#010101;opacity:0.1;}.cls-6{fill:#e3e7f4;}.cls-7{fill:#403e56;}.cls-8{fill:#302e41;}.cls-9{fill:#f9bebf;}.cls-10,.cls-17{fill:none;stroke-miterlimit:10;}.cls-10{stroke:#f3f3f3;stroke-width:0.1px;}.cls-11,.cls-12,.cls-15,.cls-16{fill:#6466af;}.cls-12{opacity:0.5;}.cls-13,.cls-18{opacity:0.4;}.cls-14,.cls-18{fill:#f3f3f3;}.cls-15{opacity:0.66;}.cls-16{opacity:0.82;}.cls-17{stroke:#6466af;}.cls-20{fill:#dfe3ee;}.cls-21,.cls-22{fill:#614fa0;}</style></defs><title>backInBusiness</title><g id="Layer_2" data-name="Layer 2"><g id="Layer_1-2" data-name="Layer 1"><ellipse class="cls-1" cx="224.59" cy="343.58" rx="224.59" ry="12.68"/><path class="cls-2" d="M130,248s3.17-.73,5.24,1.41c0,0-1.34,1.19-4.47-.13Z"/><path class="cls-2" d="M129.61,248s-1.87,2.66-.68,5.38c0,0,1.62-.79,1.59-4.18Z"/><path class="cls-2" d="M127.5,244s1.13-2.43,6.47.52a2.88,2.88,0,0,1-2.85,1.64A3.49,3.49,0,0,1,127.5,244Z"/><path class="cls-3" d="M146.88,274.92a15.25,15.25,0,0,0-3,.84c-21.38,8.54-21,64.43-21,64.43h-6.29s-2-24-10.62-58.2c-7.78-30.79,24.13-58.38,30.61-63.61l1.13-.89C169.86,229.3,146.88,274.92,146.88,274.92Z"/><path class="cls-4" d="M140.05,218.46c-.74-.34-1.5-.67-2.32-1l-1.13.89c-6.48,5.23-38.39,32.82-30.61,63.6,8.64,34.22,10.6,58.2,10.6,58.2h3.54s-2-24-10.62-58.2C101.76,251.34,133.36,223.86,140.05,218.46Z"/><path class="cls-3" d="M252.92,282c-8.66,34.22-10.61,58.2-10.61,58.2H236s.39-58.41-22.49-64.93a11,11,0,0,0-1.51-.35s-23-45.62,9.16-57.42c0,0,.33.24.92.71C228,223,260.79,250.85,252.92,282Z"/><path class="cls-5" d="M146.88,274.92a15.25,15.25,0,0,0-3,.84,387.18,387.18,0,0,1-7.33-57.37l1.13-.89C169.86,229.3,146.88,274.92,146.88,274.92Z"/><path class="cls-5" d="M222.1,218.21a357.07,357.07,0,0,1-8.57,57.07,15.06,15.06,0,0,0-1.51-.35s-23-45.61,9.17-57.42Z"/><path class="cls-6" d="M210.33,283.56q-3.33,13.14-7.8,27c-4.48,13.81-14.16,14.74-48.36,0a258.47,258.47,0,0,1-7.17-26c-8.27-36-18.2-104.6,2.94-175.07A262.25,262.25,0,0,1,176.57,49s18.06,20.73,31.31,60.42S229.57,207.75,210.33,283.56Z"/><circle class="cls-3" cx="179.44" cy="165.38" r="28.39"/><path class="cls-2" d="M199.58,165.4a20.12,20.12,0,0,1-36.67,11.47,17.82,17.82,0,0,1-1.3-2.13,20.13,20.13,0,0,1-2.3-9.34v-.48A20.17,20.17,0,0,1,174,146a21.48,21.48,0,0,1,4.85-.74h.6a20.15,20.15,0,0,1,20.15,20.13Z"/><path class="cls-3" d="M207.88,109.43c-32.21,15.42-58,0-58,0A262.43,262.43,0,0,1,176.57,49S194.63,69.74,207.88,109.43Z"/><path class="cls-3" d="M210.33,283.56q-2.27,8.9-5,18.1Q204,306,202.52,310.5c-1.46,4.46-14.16,14.75-48.35,0,0,0-1.11-3.12-2.78-8.84-1.24-4.32-2.79-10.11-4.41-17.16,0,0,12.73,5.43,30.8,5.43A84.7,84.7,0,0,0,210.33,283.56Z"/><path class="cls-6" d="M205.3,301.66Q204,306,202.52,310.5c-1.46,4.46-14.16,14.75-48.35,0,0,0-1.11-3.12-2.78-8.84C151.39,301.66,186.24,311.68,205.3,301.66Z"/><path class="cls-4" d="M174,146l0,0-14.63,18.88v.48a20.12,20.12,0,0,0,2.29,9.34l17.24-29.47Z"/><path class="cls-4" d="M178.66,163l-12,17.93a20.06,20.06,0,0,1-3.77-4.09l14.27-15.32Z"/><path class="cls-4" d="M161.82,310.51a258.47,258.47,0,0,1-7.17-26c-8.27-36-18.2-104.61,2.94-175.07a263.2,263.2,0,0,1,23.33-54.74c-2.69-3.76-4.36-5.68-4.36-5.68a262.4,262.4,0,0,0-26.64,60.42C128.79,179.89,138.71,248.5,147,284.5a261.87,261.87,0,0,0,7.17,26c13.51,5.82,23.89,7,31.51,6.39C179.15,316.41,171.25,314.57,161.82,310.51Z"/><path class="cls-1" d="M414,166.42c-.67,1.72-1.38,3.45-2.11,5.13l-1.26-.55c1.1-2.52,2.13-5.12,3.06-7.72l1.3.47Q414.5,165.08,414,166.42Zm3.55-10.66-1.32-.38c.75-2.65,1.42-5.36,2-8l1.35.28C419,150.33,418.3,153.07,417.54,155.76Zm-9.27,23.36c-1.29,2.48-2.68,4.93-4.13,7.31l-1.17-.72c1.43-2.35,2.8-4.78,4.07-7.22ZM421,139.35l-1.36-.2c.38-2.72.67-5.5.86-8.25l1.37.1c-.19,2.78-.49,5.59-.87,8.35Zm-21.48,54.08c-1.61,2.28-3.32,4.52-5.09,6.68l-1.06-.87c1.75-2.14,3.44-4.36,5-6.6Zm22.65-70.82h-1.38c0-2.75-.09-5.54-.27-8.28l1.37-.1c.19,2.78.28,5.6.28,8.38Zm-33.28,83.81c-1.92,2-3.93,4-6,5.92l-.94-1c2-1.87,4-3.84,5.91-5.85ZM421,105.89l-1.36.19c-.38-2.73-.85-5.48-1.41-8.17l1.34-.28c.57,2.72,1,5.5,1.43,8.26ZM376.56,217.82c-2.17,1.75-4.43,3.45-6.72,5l-.79-1.13c2.26-1.57,4.5-3.25,6.65-5ZM417.61,89.48l-1.32.37c-.75-2.65-1.59-5.31-2.51-7.9l1.29-.47c.94,2.63,1.79,5.32,2.54,8Zm-54.82,138c-2.38,1.43-4.85,2.8-7.34,4.07l-.62-1.22c2.45-1.26,4.89-2.61,7.26-4ZM412,73.68l-1.26.55c-1.1-2.53-2.3-5-3.57-7.5l1.22-.63c1.29,2.47,2.5,5,3.61,7.58ZM347.85,235.06c-2.56,1.1-5.19,2.12-7.82,3l-.45-1.3c2.6-.91,5.2-1.92,7.73-3ZM404.27,58.78l-1.18.72c-1.43-2.36-3-4.69-4.55-7l1.12-.79C401.27,54,402.82,56.4,404.27,58.78ZM332,240.6c-2.69.74-5.43,1.39-8.16,1.94l-.27-1.35c2.69-.54,5.41-1.19,8.07-1.92ZM394.59,45.07l-1.07.87c-1.74-2.14-3.58-4.24-5.46-6.26l1-.94c1.91,2,3.77,4.17,5.53,6.33Zm-79,198.85c-2.76.37-5.57.64-8.35.81l-.08-1.37c2.74-.17,5.52-.44,8.25-.8ZM383.12,32.81l-.94,1c-2-1.88-4.13-3.72-6.28-5.45l.87-1.07c2.17,1.75,4.3,3.61,6.35,5.51ZM298.87,245c-2.79,0-5.61-.14-8.39-.35l.1-1.37c2.75.21,5.54.32,8.29.34Zm71.2-222.72-.79,1.12c-2.26-1.58-4.6-3.1-7-4.52l.71-1.18c2.39,1.44,4.75,3,7,4.58ZM282.14,243.7c-2.76-.4-5.54-.9-8.26-1.5l.29-1.34c2.7.58,5.44,1.08,8.17,1.48ZM355.7,13.59l-.63,1.22c-2.44-1.26-5-2.44-7.5-3.53l.54-1.27C350.67,11.11,353.23,12.32,355.7,13.59ZM265.75,240.15c-2.67-.78-5.36-1.65-8-2.61l.47-1.29c2.59.94,5.25,1.81,7.89,2.57ZM339.84,8.26c-2.61-.92-5.27-1.75-7.92-2.49l.37-1.33c2.68.75,5.37,1.6,8,2.52Zm-16-4.43c-2.7-.56-5.45-1-8.18-1.39l.19-1.36c2.75.37,5.54.84,8.27,1.4ZM307.42,1.62c-2.75-.17-5.54-.26-8.29-.24V0c2.78,0,5.6.07,8.37.25Zm-16.57.08c-2.75.21-5.52.51-8.24.9l-.2-1.36c2.75-.4,5.56-.7,8.34-.91ZM274.44,4.06c-2.7.57-5.41,1.25-8.05,2L266,4.75c2.68-.77,5.41-1.45,8.14-2ZM258.5,8.63c-2.59.94-5.18,2-7.7,3.09l-.56-1.26c2.55-1.13,5.17-2.18,7.79-3.13Zm-15.18,6.7c-2.44,1.28-4.87,2.66-7.21,4.11l-.72-1.17c2.37-1.46,4.82-2.86,7.29-4.16ZM229.19,24c-2.24,1.6-4.46,3.3-6.58,5L221.73,28c2.15-1.77,4.39-3.49,6.66-5.11ZM216.38,34.58c-2,1.9-4,3.89-5.83,5.92l-1-.94c1.89-2.05,3.87-4.06,5.9-6ZM205.14,46.8c-1.72,2.15-3.39,4.39-5,6.65l-1.13-.78c1.59-2.29,3.28-4.56,5-6.73ZM195.7,60.43c-1.41,2.37-2.76,4.81-4,7.28l-1.23-.63c1.26-2.48,2.62-5,4-7.35Z"/><path class="cls-1" d="M250.36,233.06l-.56,1.26c-1.27-.57-2.53-1.16-3.76-1.75l.6-1.24C247.85,231.92,249.11,232.5,250.36,233.06Z"/><polygon class="cls-7" points="235.35 178.34 234.48 177.52 300.14 107.84 353.58 107.84 353.58 109.04 300.66 109.04 235.35 178.34"/><rect class="cls-2" x="288.46" y="271.31" width="63.07" height="2.14"/><rect class="cls-2" x="284.5" y="272.47" width="63.07" height="2.14"/><rect class="cls-2" x="284.5" y="281.55" width="63.07" height="2.14"/><polygon class="cls-7" points="346.8 260.58 283.66 260.58 283.48 260.32 234.41 189.11 235.4 188.43 284.29 259.38 346.8 259.38 346.8 260.58"/><path class="cls-8" d="M134,79.92h0c-10.48,0-19,9.43-19,21.07v14.78h4.54l2.64-5.48-.66,5.48h29.22l2.39-5-.6,5h3.29V104.16C155.83,90.78,146.05,79.92,134,79.92Z"/><path class="cls-9" d="M129.59,109.84s2.24,7.18,0,8.07-4.49,23.78-4.49,23.78l18-4.48,3.59-18s-6.28-9.87-5.39-14.36Z"/><path class="cls-9" d="M181.18,204.5l2.69,4.93s16.15,4.94,11.67,13-15.71-9-15.71-9l-3.14-7.18Z"/><path class="cls-9" d="M65.44,183.86l-4,3.14s-18.84,8.53-12.11,12.12,15.25-7.63,15.25-7.63L69.92,187Z"/><path class="cls-9" d="M90.56,204.5,98,258.11s3.37,18.17,9.65,42.84l2.24,12.12,9-3.14s-2.24-20.19-1.79-30.06a121.4,121.4,0,0,0-1.35-21.09s-4-36.78-1.34-44.86S90.56,204.5,90.56,204.5Z"/><path class="cls-5" d="M90.56,204.5,98,258.11s3.37,18.17,9.65,42.84l2.24,12.12,9-3.14s-2.24-20.19-1.79-30.06a121.4,121.4,0,0,0-1.35-21.09s-4-36.78-1.34-44.86S90.56,204.5,90.56,204.5Z"/><path class="cls-9" d="M93.7,206.29S56,222.44,66.33,236.35s33.2,32.3,33.2,32.3l4,6.28,6.28-7.18-10.32-15.7s-9.42-14.35-13.46-17l32.75-19.74Z"/><path class="cls-8" d="M119.72,307.68l-11.22,4.49s.45,18.84-3.59,22-2.24,7.63,4.49,6.28,7.18-2.69,7.18-2.69l3.14-12.11-.9,10.32,2.25-.45,1.34-11.22S126.45,311.72,119.72,307.68Z"/><path class="cls-8" d="M101.77,273.59s8.53,20.63,7.63,24.22-1.34,11.67,5.83,8.08a19.63,19.63,0,0,0,9.42-9.87L122,280.32l6.73,9,1.8-1.35-6.73-10.76s-7.63-13-13.91-12.12Z"/><circle class="cls-9" cx="131.83" cy="100.42" r="13.01"/><path class="cls-7" d="M128.24,135.41l17.17-18.22,5.26,4.31,13.91,7.18L143.5,166.81s-5.84,11.67-4.94,18.4-1.34,35-17.49,41.27c0,0-24.68-19.29-29.61-17.94s-5.39,2.69-5.39,2.69,4.94-34.1,19.29-44c0,0,8.08-7.62,6.73-13.46s-1.79-32.74-1.79-32.74l20-3.87Z"/><polygon class="cls-7" points="157.85 127.34 164.58 128.68 172.66 172.2 183.42 207.19 171.31 210.33 152.47 146.63 157.85 127.34"/><polygon class="cls-7" points="112.99 122.4 110.3 121.06 88.76 156.94 63.64 184.31 73.96 192.84 114.34 143.04 112.99 122.4"/><path class="cls-8" d="M139.39,85.73a10,10,0,0,0-7.86-4h-.37c-7.19,0-13,6.5-13,14.52h2.41l.39-3,.57,3H135.8l1.19-2.5-.3,2.5h2.81q2,9.77-5.65,19.53h4.79l2.39-5-.6,5h9.12l1.8-11.52C151.35,95.63,146.34,88.31,139.39,85.73Z"/><line class="cls-10" x1="231.82" y1="48.11" x2="231.82" y2="92.29"/><line class="cls-10" x1="249.72" y1="48.11" x2="249.72" y2="92.29"/><line class="cls-10" x1="267.62" y1="48.11" x2="267.62" y2="92.29"/><line class="cls-10" x1="285.52" y1="48.11" x2="285.52" y2="92.29"/><circle class="cls-11" cx="249.08" cy="75.41" r="1.72"/><circle class="cls-12" cx="231.92" cy="102.38" r="1.23"/><circle class="cls-12" cx="249.82" cy="102.38" r="1.23"/><circle class="cls-12" cx="267.72" cy="102.38" r="1.23"/><g class="cls-13"><rect class="cls-14" x="214.92" y="59.07" width="1.47" height="0.06"/><path class="cls-14" d="M343.65,59.13h-2.89v-.06h2.89Zm-5.78,0H335v-.06h2.89Zm-5.79,0h-2.89v-.06h2.89Zm-5.78,0h-2.89v-.06h2.89Zm-5.78,0h-2.9v-.06h2.9Zm-5.79,0h-2.89v-.06h2.89Zm-5.79,0h-2.89v-.06h2.89Zm-5.78,0h-2.89v-.06h2.89Zm-5.78,0h-2.9v-.06h2.9Zm-5.79,0H288.7v-.06h2.89Zm-5.78,0h-2.9v-.06h2.9Zm-5.79,0h-2.89v-.06H280Zm-5.78,0h-2.9v-.06h2.9Zm-5.79,0h-2.89v-.06h2.89Zm-5.78,0h-2.9v-.06h2.9Zm-5.79,0H254v-.06h2.89Zm-5.78,0h-2.9v-.06h2.9Zm-5.79,0h-2.89v-.06h2.89Zm-5.78,0h-2.89v-.06h2.89Zm-5.79,0h-2.89v-.06h2.89Zm-5.78,0h-2.9v-.06H228Zm-5.79,0h-2.89v-.06h2.89Z"/><rect class="cls-14" x="346.55" y="59.07" width="1.47" height="0.06"/><rect class="cls-14" x="214.92" y="59.07" width="1.47" height="0.06"/><path class="cls-14" d="M343.65,59.13h-2.89v-.06h2.89Zm-5.78,0H335v-.06h2.89Zm-5.79,0h-2.89v-.06h2.89Zm-5.78,0h-2.89v-.06h2.89Zm-5.78,0h-2.9v-.06h2.9Zm-5.79,0h-2.89v-.06h2.89Zm-5.79,0h-2.89v-.06h2.89Zm-5.78,0h-2.89v-.06h2.89Zm-5.78,0h-2.9v-.06h2.9Zm-5.79,0H288.7v-.06h2.89Zm-5.78,0h-2.9v-.06h2.9Zm-5.79,0h-2.89v-.06H280Zm-5.78,0h-2.9v-.06h2.9Zm-5.79,0h-2.89v-.06h2.89Zm-5.78,0h-2.9v-.06h2.9Zm-5.79,0H254v-.06h2.89Zm-5.78,0h-2.9v-.06h2.9Zm-5.79,0h-2.89v-.06h2.89Zm-5.78,0h-2.89v-.06h2.89Zm-5.79,0h-2.89v-.06h2.89Zm-5.78,0h-2.9v-.06H228Zm-5.79,0h-2.89v-.06h2.89Z"/><rect class="cls-14" x="346.55" y="59.07" width="1.47" height="0.06"/></g><g class="cls-13"><rect class="cls-14" x="214.92" y="48.04" width="1.47" height="0.06"/><path class="cls-14" d="M343.65,48.1h-2.89V48h2.89Zm-5.78,0H335V48h2.89Zm-5.79,0h-2.89V48h2.89Zm-5.78,0h-2.89V48h2.89Zm-5.78,0h-2.9V48h2.9Zm-5.79,0h-2.89V48h2.89Zm-5.79,0h-2.89V48h2.89Zm-5.78,0h-2.89V48h2.89Zm-5.78,0h-2.9V48h2.9Zm-5.79,0H288.7V48h2.89Zm-5.78,0h-2.9V48h2.9Zm-5.79,0h-2.89V48H280Zm-5.78,0h-2.9V48h2.9Zm-5.79,0h-2.89V48h2.89Zm-5.78,0h-2.9V48h2.9Zm-5.79,0H254V48h2.89Zm-5.78,0h-2.9V48h2.9Zm-5.79,0h-2.89V48h2.89Zm-5.78,0h-2.89V48h2.89Zm-5.79,0h-2.89V48h2.89Zm-5.78,0h-2.9V48H228Zm-5.79,0h-2.89V48h2.89Z"/><rect class="cls-14" x="346.55" y="48.04" width="1.47" height="0.06"/></g><g class="cls-13"><rect class="cls-14" x="214.92" y="70.09" width="1.47" height="0.06"/><path class="cls-14" d="M343.65,70.15h-2.89v-.06h2.89Zm-5.78,0H335v-.06h2.89Zm-5.79,0h-2.89v-.06h2.89Zm-5.78,0h-2.89v-.06h2.89Zm-5.78,0h-2.9v-.06h2.9Zm-5.79,0h-2.89v-.06h2.89Zm-5.79,0h-2.89v-.06h2.89Zm-5.78,0h-2.89v-.06h2.89Zm-5.78,0h-2.9v-.06h2.9Zm-5.79,0H288.7v-.06h2.89Zm-5.78,0h-2.9v-.06h2.9Zm-5.79,0h-2.89v-.06H280Zm-5.78,0h-2.9v-.06h2.9Zm-5.79,0h-2.89v-.06h2.89Zm-5.78,0h-2.9v-.06h2.9Zm-5.79,0H254v-.06h2.89Zm-5.78,0h-2.9v-.06h2.9Zm-5.79,0h-2.89v-.06h2.89Zm-5.78,0h-2.89v-.06h2.89Zm-5.79,0h-2.89v-.06h2.89Zm-5.78,0h-2.9v-.06H228Zm-5.79,0h-2.89v-.06h2.89Z"/><rect class="cls-14" x="346.55" y="70.09" width="1.47" height="0.06"/><rect class="cls-14" x="214.92" y="70.09" width="1.47" height="0.06"/><path class="cls-14" d="M343.65,70.15h-2.89v-.06h2.89Zm-5.78,0H335v-.06h2.89Zm-5.79,0h-2.89v-.06h2.89Zm-5.78,0h-2.89v-.06h2.89Zm-5.78,0h-2.9v-.06h2.9Zm-5.79,0h-2.89v-.06h2.89Zm-5.79,0h-2.89v-.06h2.89Zm-5.78,0h-2.89v-.06h2.89Zm-5.78,0h-2.9v-.06h2.9Zm-5.79,0H288.7v-.06h2.89Zm-5.78,0h-2.9v-.06h2.9Zm-5.79,0h-2.89v-.06H280Zm-5.78,0h-2.9v-.06h2.9Zm-5.79,0h-2.89v-.06h2.89Zm-5.78,0h-2.9v-.06h2.9Zm-5.79,0H254v-.06h2.89Zm-5.78,0h-2.9v-.06h2.9Zm-5.79,0h-2.89v-.06h2.89Zm-5.78,0h-2.89v-.06h2.89Zm-5.79,0h-2.89v-.06h2.89Zm-5.78,0h-2.9v-.06H228Zm-5.79,0h-2.89v-.06h2.89Z"/><rect class="cls-14" x="346.55" y="70.09" width="1.47" height="0.06"/></g><g class="cls-13"><rect class="cls-14" x="214.92" y="81.11" width="1.47" height="0.06"/><path class="cls-14" d="M343.65,81.17h-2.89v-.06h2.89Zm-5.78,0H335v-.06h2.89Zm-5.79,0h-2.89v-.06h2.89Zm-5.78,0h-2.89v-.06h2.89Zm-5.78,0h-2.9v-.06h2.9Zm-5.79,0h-2.89v-.06h2.89Zm-5.79,0h-2.89v-.06h2.89Zm-5.78,0h-2.89v-.06h2.89Zm-5.78,0h-2.9v-.06h2.9Zm-5.79,0H288.7v-.06h2.89Zm-5.78,0h-2.9v-.06h2.9Zm-5.79,0h-2.89v-.06H280Zm-5.78,0h-2.9v-.06h2.9Zm-5.79,0h-2.89v-.06h2.89Zm-5.78,0h-2.9v-.06h2.9Zm-5.79,0H254v-.06h2.89Zm-5.78,0h-2.9v-.06h2.9Zm-5.79,0h-2.89v-.06h2.89Zm-5.78,0h-2.89v-.06h2.89Zm-5.79,0h-2.89v-.06h2.89Zm-5.78,0h-2.9v-.06H228Zm-5.79,0h-2.89v-.06h2.89Z"/><rect class="cls-14" x="346.55" y="81.11" width="1.47" height="0.06"/><rect class="cls-14" x="214.92" y="81.11" width="1.47" height="0.06"/><path class="cls-14" d="M343.65,81.17h-2.89v-.06h2.89Zm-5.78,0H335v-.06h2.89Zm-5.79,0h-2.89v-.06h2.89Zm-5.78,0h-2.89v-.06h2.89Zm-5.78,0h-2.9v-.06h2.9Zm-5.79,0h-2.89v-.06h2.89Zm-5.79,0h-2.89v-.06h2.89Zm-5.78,0h-2.89v-.06h2.89Zm-5.78,0h-2.9v-.06h2.9Zm-5.79,0H288.7v-.06h2.89Zm-5.78,0h-2.9v-.06h2.9Zm-5.79,0h-2.89v-.06H280Zm-5.78,0h-2.9v-.06h2.9Zm-5.79,0h-2.89v-.06h2.89Zm-5.78,0h-2.9v-.06h2.9Zm-5.79,0H254v-.06h2.89Zm-5.78,0h-2.9v-.06h2.9Zm-5.79,0h-2.89v-.06h2.89Zm-5.78,0h-2.89v-.06h2.89Zm-5.79,0h-2.89v-.06h2.89Zm-5.78,0h-2.9v-.06H228Zm-5.79,0h-2.89v-.06h2.89Z"/><rect class="cls-14" x="346.55" y="81.11" width="1.47" height="0.06"/></g><g class="cls-13"><rect class="cls-14" x="214.92" y="92.13" width="1.47" height="0.06"/><path class="cls-14" d="M343.65,92.19h-2.89v-.06h2.89Zm-5.78,0H335v-.06h2.89Zm-5.79,0h-2.89v-.06h2.89Zm-5.78,0h-2.89v-.06h2.89Zm-5.78,0h-2.9v-.06h2.9Zm-5.79,0h-2.89v-.06h2.89Zm-5.79,0h-2.89v-.06h2.89Zm-5.78,0h-2.89v-.06h2.89Zm-5.78,0h-2.9v-.06h2.9Zm-5.79,0H288.7v-.06h2.89Zm-5.78,0h-2.9v-.06h2.9Zm-5.79,0h-2.89v-.06H280Zm-5.78,0h-2.9v-.06h2.9Zm-5.79,0h-2.89v-.06h2.89Zm-5.78,0h-2.9v-.06h2.9Zm-5.79,0H254v-.06h2.89Zm-5.78,0h-2.9v-.06h2.9Zm-5.79,0h-2.89v-.06h2.89Zm-5.78,0h-2.89v-.06h2.89Zm-5.79,0h-2.89v-.06h2.89Zm-5.78,0h-2.9v-.06H228Zm-5.79,0h-2.89v-.06h2.89Z"/><rect class="cls-14" x="346.55" y="92.13" width="1.47" height="0.06"/><rect class="cls-14" x="214.92" y="92.13" width="1.47" height="0.06"/><path class="cls-14" d="M343.65,92.19h-2.89v-.06h2.89Zm-5.78,0H335v-.06h2.89Zm-5.79,0h-2.89v-.06h2.89Zm-5.78,0h-2.89v-.06h2.89Zm-5.78,0h-2.9v-.06h2.9Zm-5.79,0h-2.89v-.06h2.89Zm-5.79,0h-2.89v-.06h2.89Zm-5.78,0h-2.89v-.06h2.89Zm-5.78,0h-2.9v-.06h2.9Zm-5.79,0H288.7v-.06h2.89Zm-5.78,0h-2.9v-.06h2.9Zm-5.79,0h-2.89v-.06H280Zm-5.78,0h-2.9v-.06h2.9Zm-5.79,0h-2.89v-.06h2.89Zm-5.78,0h-2.9v-.06h2.9Zm-5.79,0H254v-.06h2.89Zm-5.78,0h-2.9v-.06h2.9Zm-5.79,0h-2.89v-.06h2.89Zm-5.78,0h-2.89v-.06h2.89Zm-5.79,0h-2.89v-.06h2.89Zm-5.78,0h-2.9v-.06H228Zm-5.79,0h-2.89v-.06h2.89Z"/><rect class="cls-14" x="346.55" y="92.13" width="1.47" height="0.06"/></g><line class="cls-10" x1="303.42" y1="48.11" x2="303.42" y2="92.29"/><line class="cls-10" x1="321.32" y1="48.11" x2="321.32" y2="92.29"/><path class="cls-15" d="M343.09,45.13l-2,2.13a1.3,1.3,0,0,0-.1.15L339.67,50a.6.6,0,0,1-.57.33l-.4,0a.57.57,0,0,1-.52-.41l-.39-1.36a.58.58,0,0,0-1.11,0L336,50.45a.58.58,0,0,1-.55.4H333a.58.58,0,0,1-.57-.49l-.71-4.45a.59.59,0,0,0-.67-.49.61.61,0,0,0-.43.32l-3.64,7.19a.59.59,0,0,1-.78.26l-.08,0-2.16-1.53a.57.57,0,0,0-.78.09l-.82.95-.07.09-2.19,3.79a.58.58,0,0,1-.56.29l-1.34-.13a.51.51,0,0,0-.27,0l-1.2.47a.57.57,0,0,1-.73-.3l-.27-.6a.57.57,0,0,0-.55-.35l-1.37.06a.6.6,0,0,0-.44.23l-.38.51a.59.59,0,0,1-.82.1.52.52,0,0,1-.19-.27l-.49-1.38a.56.56,0,0,0-.9-.27l-2.33,1.74-2.58,2.08a.58.58,0,0,1-.63.06l-2-1a.51.51,0,0,0-.34-.06l-4.05.56a.59.59,0,0,0-.49.45l-.72,3.12a.59.59,0,0,1-.7.44.67.67,0,0,1-.25-.13h0a.58.58,0,0,0-.82.07,1,1,0,0,0-.08.11L295,63.46a.58.58,0,0,1-.42.31l-1.25.21a.79.79,0,0,0-.23.09l-2,1.32a.63.63,0,0,1-.33.09h-.92a.56.56,0,0,1-.53-.35l-.25-.58a.58.58,0,0,0-.77-.3h0l-2.14,1a.59.59,0,0,1-.55,0l-1-.59a.61.61,0,0,0-.3-.08h-2.16a.56.56,0,0,0-.33.1l-2.16,1.43a.56.56,0,0,1-.56,0l-1-.46a.58.58,0,0,0-.68.14l-.46.54a.58.58,0,0,1-.82.05.47.47,0,0,1-.13-.15l-.14-.25a.58.58,0,0,0-.79-.22h0l-1.7,1a.55.55,0,0,1-.58,0l-.7-.39a.59.59,0,0,0-.52,0l-.67.31a.59.59,0,0,1-.78-.3.14.14,0,0,0,0-.06l-.43-1.28a.59.59,0,0,0-.55-.41h-.63a.53.53,0,0,1-.28-.07l-2.41-1.32a.6.6,0,0,0-.63,0l-1.77,1.33a.61.61,0,0,1-.35.11h-2.22a.58.58,0,0,0-.32.1l-.42.28a.58.58,0,0,1-.81-.16l0-.06-.1-.2a.59.59,0,0,0-.52-.33h-1.12a.59.59,0,0,0-.46.23l-.69.88a.57.57,0,0,1-.81.1.62.62,0,0,1-.14-.14l-.19-.31a.57.57,0,0,0-.79-.18l-.58.34a.57.57,0,0,1-.64,0L251,63.58l-.13-.08L249,62.81a.57.57,0,0,0-.73.32L247,66.2a.65.65,0,0,0,0,.13l-.41,2.76a.56.56,0,0,1-.15.32l-.86.92a.59.59,0,0,1-.71.11l-1.49-.83a.57.57,0,0,0-.79.22.42.42,0,0,0,0,.1l-.95,2.77a.58.58,0,0,0,0,.19v1.74a.58.58,0,0,1-.35.53l-1.52.68a.58.58,0,0,1-.53,0L238,75.13a.57.57,0,0,0-.38-.07l-2,.28a.58.58,0,0,1-.59-.28l-.33-.58a.61.61,0,0,0-.33-.26l-.91-.28a.58.58,0,0,0-.61.16l-1.26,1.4a.58.58,0,0,1-.39.19l-1.86.16a.61.61,0,0,0-.24.07l-3.25,1.87a.59.59,0,0,1-.66-.05l-.92-.73a.53.53,0,0,0-.36-.13h-3.49a.58.58,0,0,1-.46-.22l-.88-1.1a.57.57,0,0,0-.81-.09.23.23,0,0,0-.07.07l-1.06,1.17a.58.58,0,0,0-.15.39V91.73a.58.58,0,0,0,.58.58h126a.58.58,0,0,0,.58-.58h0l0-46.18a.58.58,0,0,0-1-.41Z"/><path class="cls-15" d="M343,64.07l-1.9,1.26a.55.55,0,0,0-.17.17l-1.18,1.55a.73.73,0,0,1-.61.29l-.39,0a.72.72,0,0,1-.62-.42l-.24-.53a.72.72,0,0,0-.95-.36.81.81,0,0,0-.34.32l-.49.94a.7.7,0,0,1-.63.38H333a.7.7,0,0,1-.69-.54l-.59-2.34a.72.72,0,0,0-1.26-.27L327,68.93a.71.71,0,0,1-.86.21l-2.26-1a.71.71,0,0,0-.73.08l-.81.59a.94.94,0,0,0-.1.1l-2.13,2.36a.69.69,0,0,1-.58.24l-1.39-.08a.6.6,0,0,0-.23,0l-1.25.32a.72.72,0,0,1-.77-.29l-.14-.21a.72.72,0,0,0-.62-.31l-1.39,0a.68.68,0,0,0-.44.16l-.35.29a.71.71,0,0,1-1-.09,1,1,0,0,1-.08-.11l-.36-.66a.72.72,0,0,0-.94-.3l-2.35,1.13-2.6,1.34a.68.68,0,0,1-.56,0L303,72.1a.92.92,0,0,0-.29,0l-4,.34a.74.74,0,0,0-.61.48l-.58,1.62a.72.72,0,0,1-.92.43l-.1,0h0a.7.7,0,0,0-.91.18l-.45.59a.73.73,0,0,1-.49.27l-1.26.13-.21,0-2,.85a.72.72,0,0,1-.29.06h-.95a.75.75,0,0,1-.6-.31l-.13-.2a.72.72,0,0,0-.8-.29l-2.23.68a.76.76,0,0,1-.47,0l-1-.4a.69.69,0,0,0-.25,0h-2.22a.56.56,0,0,0-.28,0l-2.2.94a.72.72,0,0,1-.5,0l-1.09-.33a.75.75,0,0,0-.63.11l-.47.35a.73.73,0,0,1-1-.11l-.07-.08a.73.73,0,0,0-.79-.2l-1.78.68a.69.69,0,0,1-.49,0l-.78-.28a.82.82,0,0,0-.44,0l-.74.22a.73.73,0,0,1-.84-.37l-.27-.55a.72.72,0,0,0-.65-.4h-.63a.69.69,0,0,1-.25,0l-2.47-.87a.75.75,0,0,0-.55,0l-1.81.87a.67.67,0,0,1-.31.07h-2.28a.72.72,0,0,0-.29.06l-.46.2a.73.73,0,0,1-.85-.22h0a.71.71,0,0,0-.57-.28h-1.15a.73.73,0,0,0-.45.16l-.67.55a.71.71,0,0,1-1-.05l-.15-.15a.73.73,0,0,0-.77-.16l-.66.26a.8.8,0,0,1-.57,0L251,75.8l-.13,0L249,75.3a.73.73,0,0,0-.78.31l-1.16,1.8a.92.92,0,0,0-.09.23l-.35,1.53a.7.7,0,0,1-.3.43l-.76.53a.71.71,0,0,1-.65.08l-1.57-.56a.72.72,0,0,0-.88.35l-.83,1.55a.84.84,0,0,0-.08.34v.7a.72.72,0,0,1-.53.69l-1.38.39a.74.74,0,0,1-.44,0l-1.2-.46a.69.69,0,0,0-.32,0l-2.07.19a.74.74,0,0,1-.6-.23l-.24-.28a.76.76,0,0,0-.39-.22l-1-.19a.79.79,0,0,0-.56.12l-1.24.89a.72.72,0,0,1-.38.13l-1.9.1-.21,0-3.31,1.23a.73.73,0,0,1-.58,0l-1-.49a.64.64,0,0,0-.33-.08h-3.55a.76.76,0,0,1-.46-.16l-.86-.69a.72.72,0,0,0-.86,0l-.92.66a.73.73,0,0,0-.3.59v6.89a.71.71,0,0,0,.71.72H343.41a.72.72,0,0,0,.72-.72l0-26.91a.71.71,0,0,0-.71-.73A.72.72,0,0,0,343,64.07Z"/><path class="cls-16" d="M343.37,80.87l-2.33.77-.12.06-1.28.85a.62.62,0,0,1-.32.09l-.8,0a.55.55,0,0,1-.39-.18l-.49-.54a.55.55,0,0,0-.77,0h0l-.82.77a.54.54,0,0,1-.38.15H332.8a.53.53,0,0,1-.49-.3l-.66-1.31a.54.54,0,0,0-.73-.24l-.05,0-4.05,2.57a.54.54,0,0,1-.41.07L323.63,83a.44.44,0,0,0-.3,0l-1,.37-.07,0L320,84.65a.72.72,0,0,1-.28.07l-1.66-.06H318l-1.59.2a.5.5,0,0,1-.39-.1l-.33-.24a.55.55,0,0,0-.33-.11l-1.75,0a.45.45,0,0,0-.2,0l-.78.33a.55.55,0,0,1-.58-.1l-.65-.57a.51.51,0,0,0-.49-.12l-2.68.64-2.76.72a.81.81,0,0,1-.22,0L302.89,85h-.11l-4.31.19a.58.58,0,0,0-.42.23l-.65.9a.54.54,0,0,1-.59.2l-.69-.19a.57.57,0,0,0-.44.07l-.7.45a.61.61,0,0,1-.26.08l-1.47.08h-.09l-2.12.45-.12,0h-1.24a.52.52,0,0,1-.32-.11l-.33-.24a.48.48,0,0,0-.4-.1l-2.65.39a.54.54,0,0,1-.18,0l-1.25-.24a.17.17,0,0,0-.1,0h-2.39a.2.2,0,0,0-.11,0l-2.43.51h-.2l-1.44-.22a.63.63,0,0,0-.27,0l-.93.34a.51.51,0,0,1-.45,0l-.44-.24a.55.55,0,0,0-.37-.07l-2.21.42a.34.34,0,0,1-.2,0L272,87.71h-.18l-1.17.17a.52.52,0,0,1-.46-.15l-.39-.37a.55.55,0,0,0-.39-.16h-1l-2.71-.47a.41.41,0,0,0-.22,0l-2.05.49h-2.71l-.84.18a.56.56,0,0,1-.42,0l-.23-.15a.6.6,0,0,0-.29-.08h-1.5a.45.45,0,0,0-.2,0l-1.05.42a.54.54,0,0,1-.45,0l-.55-.28a.53.53,0,0,0-.35,0l-1.09.21a.89.89,0,0,1-.23,0l-2.53-.59h-.06l-2.16-.27a.59.59,0,0,0-.4.12l-1.22,1a.45.45,0,0,0-.16.2l-.28.61a.57.57,0,0,1-.32.29l-.94.32a.5.5,0,0,1-.27,0L243,88.74a.54.54,0,0,0-.47.14l-.83.78a.54.54,0,0,0-.18.4h0a.55.55,0,0,1-.47.54l-1.57.21h-.17l-1.43-.27h-.12l-2.38.11a.58.58,0,0,1-.29-.06l-.41-.23a.58.58,0,0,0-.21-.07l-1.25-.12a.54.54,0,0,0-.25,0l-1.47.52a.47.47,0,0,1-.17,0l-2.09.06a.11.11,0,0,0-.08,0l-3.55.65a.45.45,0,0,1-.23,0l-1.21-.31-.13,0h-3.81a.46.46,0,0,1-.2,0l-1.19-.48a.53.53,0,0,0-.39,0l-1.11.39a.57.57,0,0,0-.36.52v.24a.55.55,0,0,0,.54.55h126a.54.54,0,0,0,.54-.55h0l0-10.36a.55.55,0,0,0-.53-.57Z"/><path class="cls-17" d="M344.34,64.66a.72.72,0,0,0-.72-.72.93.93,0,0,0-.4.12l-1.89,1.27a.69.69,0,0,0-.18.16L340,67.05a.75.75,0,0,1-.61.29l-.38,0a.73.73,0,0,1-.62-.43l-.25-.52a.71.71,0,0,0-1.28,0l-.49.94a.74.74,0,0,1-.64.38h-2.43a.72.72,0,0,1-.7-.54L332,64.77a.71.71,0,0,0-.87-.52.64.64,0,0,0-.39.25l-3.51,4.43a.71.71,0,0,1-.86.21l-2.25-1a.73.73,0,0,0-.74.08l-.8.59a.52.52,0,0,0-.11.1l-2.13,2.36a.71.71,0,0,1-.57.24l-1.4-.09-.22,0-1.25.32a.72.72,0,0,1-.78-.29l-.14-.21a.74.74,0,0,0-.61-.31L314,71a.77.77,0,0,0-.44.17l-.34.29a.72.72,0,0,1-1-.09.5.5,0,0,1-.08-.12l-.37-.65a.7.7,0,0,0-.93-.3l-2.36,1.13-2.6,1.34a.7.7,0,0,1-.55,0l-2.07-.69a.72.72,0,0,0-.29,0l-4,.34a.76.76,0,0,0-.62.48l-.58,1.62a.71.71,0,0,1-.92.43l-.1,0h0a.7.7,0,0,0-.91.18l-.46.59a.73.73,0,0,1-.49.27l-1.25.13-.21,0-2,.85a.67.67,0,0,1-.28.06h-1a.73.73,0,0,1-.59-.31l-.14-.2a.72.72,0,0,0-.8-.29l-2.23.68a.73.73,0,0,1-.46,0l-1-.4a.64.64,0,0,0-.24,0H282.4a.54.54,0,0,0-.28,0l-2.21.94a.69.69,0,0,1-.49,0l-1.09-.33a.74.74,0,0,0-.63.11l-.48.35a.71.71,0,0,1-1-.11l-.07-.08a.75.75,0,0,0-.8-.2l-1.78.68a.69.69,0,0,1-.49,0l-.78-.28a.82.82,0,0,0-.44,0l-.73.22a.72.72,0,0,1-.84-.37l-.28-.55a.71.71,0,0,0-.64-.4h-.64a.64.64,0,0,1-.24,0l-2.48-.87a.75.75,0,0,0-.55,0l-1.8.87a.71.71,0,0,1-.32.07H261.1a.67.67,0,0,0-.28.06l-.47.2a.71.71,0,0,1-.84-.22h0a.72.72,0,0,0-.57-.28h-1.15a.76.76,0,0,0-.46.16l-.67.55a.7.7,0,0,1-1-.05l-.15-.15a.74.74,0,0,0-.77-.16l-.67.26a.77.77,0,0,1-.56,0L251.2,75.8l-.13,0-1.84-.45a.71.71,0,0,0-.77.31l-1.16,1.8a.94.94,0,0,0-.1.23l-.35,1.53a.69.69,0,0,1-.29.43l-.77.53a.7.7,0,0,1-.64.08l-1.58-.56a.72.72,0,0,0-.88.35l-.82,1.55a.72.72,0,0,0-.09.34v.7a.71.71,0,0,1-.52.69l-1.38.39a.77.77,0,0,1-.45,0l-1.2-.46a.69.69,0,0,0-.32,0l-2.07.19a.73.73,0,0,1-.59-.23l-.25-.28a.73.73,0,0,0-.39-.22l-.94-.19a.78.78,0,0,0-.56.12l-1.25.89a.72.72,0,0,1-.37.13l-1.91.1-.21,0-3.31,1.23a.71.71,0,0,1-.57,0l-1-.49a.61.61,0,0,0-.32-.08h-3.56a.75.75,0,0,1-.45-.16l-.86-.69a.74.74,0,0,0-.87,0l-.92.66a.73.73,0,0,0-.3.59"/><rect class="cls-18" x="209.85" y="102.37" width="143.44" height="0.02"/><circle class="cls-12" cx="285.62" cy="102.38" r="1.23"/><circle class="cls-12" cx="303.52" cy="102.38" r="1.23"/><circle class="cls-12" cx="321.42" cy="102.38" r="1.23"/><rect class="cls-19" x="291.76" y="214.21" width="4.46" height="14.95"/><rect class="cls-19" x="300.26" y="195.7" width="4.46" height="33.46"/><rect class="cls-20" x="308.76" y="179.03" width="4.46" height="50.14"/><rect class="cls-19" x="317.26" y="167.13" width="4.46" height="62.04"/><rect class="cls-21" x="308.76" y="167.13" width="4.46" height="62.04"/><rect class="cls-21" x="325.75" y="195.06" width="4.46" height="34.1"/><rect class="cls-22" x="334.25" y="186.25" width="4.46" height="42.92"/></g></g></svg>